<svg version="1.1" xmlns="http://www.w3.org/2000/svg" xmlns:xlink="http://www.w3.org/1999/xlink" viewBox="0 0 90 90" >
<circle cx="45" cy="45" r="45"/>
<path class="st0" d="M67.7,40H42.2C41,40,40,41,40,42.2l0,5.5c0,1.2,1,2.2,2.2,2.2c0,0,0,0,0,0l15.5,0c1.2,0,2.2,1,2.2,2.2
	c0,0,0,0,0,0v0.6l0,0v0.6c0,3.7-3,6.6-6.6,6.6h-21C31,60,30,59,30,57.7l0-21c0-3.7,3-6.6,6.6-6.6c0,0,0,0,0,0h31
	c1.2,0,2.2-1,2.2-2.2l0-5.5c0-1.2-1-2.2-2.2-2.2c0,0,0,0,0,0h-31c-9.2,0-16.6,7.4-16.6,16.6v31c0,1.2,1,2.2,2.2,2.2H55
	c8.3,0,15-6.7,15-15V42.2C69.9,41,68.9,40,67.7,40z" fill="#FFFFFF"/>
</svg>
