<svg viewBox="0 0 1024 1024" version="1.1" xmlns="http://www.w3.org/2000/svg" width="24" height="24">
    <path d="M410.737778 75.093333C180.906667 136.533333 22.755556 370.915556 65.991111 587.093333 117.191111 838.542222 351.573333 1012.622222 583.68 969.386667c250.311111-46.648889 428.942222-285.582222 385.706667-515.413334-35.271111-193.422222-162.702222-331.093333-349.297778-380.017777-81.92-20.48-128.568889-20.48-209.351111 1.137777z m357.262222 237.795556v45.511111l-185.457778 5.688889c-230.968889 6.826667-220.728889-1.137778-216.177778 176.355555l3.413334 125.155556h134.257778c121.742222 0 136.533333-2.275556 151.324444-22.755556 9.102222-12.515556 14.791111-32.995556 13.653333-45.511111-3.413333-20.48-13.653333-23.893333-100.124444-28.444444l-96.711111-5.688889v-91.022222h295.822222l3.413333 91.022222c3.413333 106.951111-17.066667 157.013333-78.506666 190.008889-34.133333 18.204444-62.577778 20.48-232.106667 18.204444l-193.422222-3.413333-2.275556-187.733333c-3.413333-176.355556-2.275556-190.008889 22.755556-232.106667 44.373333-78.506667 76.231111-87.608889 292.408889-84.195556l187.733333 3.413334v45.511111z" fill="#000000" p-id="1459"></path>
</svg>