<svg version="1.1" xmlns="http://www.w3.org/2000/svg" xmlns:xlink="http://www.w3.org/1999/xlink" viewBox="0 0 512 500">
	<path d="M477.7,127.6c-22.9-39.3-53.9-70.3-93.2-93.3C345.3,11.5,302.4,0,256,0c-46.4,0-89.3,11.5-128.5,34.4 c-39.2,22.9-70.3,54-93.2,93.3C11.4,166.9,0,209.8,0,256.3c0,55.8,16.3,106.1,48.8,150.7c32.6,44.6,74.6,75.5,126.2,92.6 c6,1.1,10.4,0.3,13.3-2.3c2.9-2.7,4.3-6,4.3-10c0-0.7-0.1-6.7-0.2-18c-0.1-11.3-0.2-21.2-0.2-29.7l-7.7,1.3 c-4.9,0.9-11.1,1.3-18.5,1.2c-7.4-0.1-15.2-0.9-23.2-2.3c-8-1.4-15.4-4.8-22.3-10c-6.9-5.2-11.8-12.1-14.7-20.5l-3.3-7.7 c-2.2-5.1-5.7-10.8-10.5-17c-4.8-6.2-9.6-10.5-14.5-12.7l-2.3-1.7c-1.6-1.1-3-2.5-4.3-4c-1.3-1.6-2.3-3.1-3-4.7 c-0.7-1.6-0.1-2.8,1.7-3.8c1.8-1,5-1.5,9.7-1.5l6.7,1c4.4,0.9,9.9,3.6,16.5,8c6.6,4.4,11.9,10.2,16.2,17.3 c5.1,9.1,11.3,16.1,18.5,20.9c7.2,4.8,14.5,7.2,21.8,7.2s13.7-0.6,19-1.7c5.3-1.1,10.3-2.8,15-5c2-14.9,7.4-26.4,16.3-34.4 c-12.7-1.3-24.1-3.3-34.2-6c-10.1-2.7-20.6-7-31.3-13c-10.8-6-19.7-13.5-26.8-22.4c-7.1-8.9-12.9-20.6-17.5-35 c-4.6-14.5-6.8-31.1-6.8-50.1c0-26.9,8.8-49.8,26.3-68.7c-8.2-20.2-7.4-42.9,2.3-68.1c6.4-2,16-0.5,28.7,4.5 c12.7,5,21.9,9.3,27.8,12.8c5.9,3.6,10.6,6.6,14.2,9c20.7-5.8,42-8.7,64-8.7s43.3,2.9,64,8.7l12.7-8c8.7-5.3,18.9-10.2,30.7-14.7 c11.8-4.4,20.8-5.7,27-3.7c10,25.1,10.9,47.8,2.7,68.1c17.6,18.9,26.3,41.8,26.3,68.7c0,18.9-2.3,35.6-6.8,50.2 c-4.6,14.6-10.4,26.2-17.7,35c-7.2,8.8-16.2,16.2-27,22.2c-10.8,6-21.2,10.3-31.3,13c-10.1,2.7-21.5,4.7-34.2,6 c11.6,10,17.3,25.8,17.3,47.4v70.4c0,4,1.4,7.3,4.2,10c2.8,2.7,7.2,3.4,13.2,2.3c51.6-17.1,93.6-48,126.2-92.6 c32.5-44.6,48.8-94.8,48.8-150.7C512,209.8,500.5,166.9,477.7,127.6z" />
</svg>