<svg version="1.1" xmlns="http://www.w3.org/2000/svg" xmlns:xlink="http://www.w3.org/1999/xlink" viewBox="0 0 336 336">
	<path d="M189.6,334.5l-11.5-43c-39.8,3.4-78.2-12.8-103.8-41.9l49.8-29.9l28.6,31.8l63.7-20.2l38-46.6l-11-24.7l-36.9,11.7 l-16.9,18.5l-23.7,6.3l-16.8-17.9l-8.3-23.1l16.9-17.4l23.7-7.5l27.1-27.5l-17-21l-58.9,12.7l-46.4,48.1l14.9,39.4l-49.4,29.6 c-1.5-3.9-2.7-7.8-3.8-11.9C30.1,133.9,69.4,65.9,135.6,48.2c10.6-2.8,21.2-4.2,31.7-4.2L175,0.1c-16.7-0.7-33.8,1.1-50.8,5.6 c-5.4,1.4-10.6,3.1-15.8,5.1c-0.4,0.2-0.9,0.3-1.3,0.5s-0.9,0.3-1.3,0.5C43.8,36.5,0,97.1,0,167.9C0,237,41.7,296.3,101.2,322.2 c0.7,0.3,1.4,0.6,2.1,0.9c0.5,0.2,1,0.4,1.5,0.6C131.1,334.3,160.2,338.3,189.6,334.5z M323.1,103.6 c-19.4-46.8-58.5-81.2-104.7-95.8l-7.7,43.8c36.5,13.5,66.2,43.8,77,84.2c15.8,58.9-13.6,119.2-67,144.3l11.5,43 c70.2-29,112.3-101.9,102.3-177l0.2-0.1c-1.9-14.9-5.8-29.1-11.4-42.5L323.1,103.6z" />
</svg>