<svg class="icon" viewBox="0 0 1024 1024" version="1.1" xmlns="http://www.w3.org/2000/svg" width="20" height="20">
    <path d="M49.493333 724.309333l321.194667-192.768-29.269333-77.6192 91.733333-94.225066 115.933867-24.9856 33.570133 41.3184-53.4528 54.135466-46.592 14.677334-33.314133 34.218666 16.315733 45.397334 33.109333 35.157333 46.6944-12.424533 33.2288-36.488534 72.5504-22.9888 21.623467 48.64-74.871467 91.784534-125.44 39.714133-56.2688-62.634667L93.969067 798.6176C78.677333 778.939733 60.8768 751.069867 49.493333 724.309333z m926.7712-392.96l-255.146666 68.8128c14.062933 37.410133 18.688 59.392 22.5792 83.626667l254.685866-68.7104c-4.061867-27.204267-11.349333-54.903467-22.1184-83.729067z" fill="#000000"></path>
    <path d="M87.517867 539.528533c18.0736 213.333333 197.188267 381.098667 415.1808 381.098667 164.7104 0 307.234133-95.778133 374.8352-234.5984l82.961066 28.7232c-79.837867 172.9536-254.890667 293.12-457.796266 293.12C236.544 1007.872 18.2784 801.0752 0 539.528533h87.517867zM1.3312 452.676267C27.067733 198.587733 241.885867 0 502.715733 0c278.135467 0 503.944533 225.809067 503.944534 503.944533 0 44.612267-5.802667 87.876267-16.725334 129.0752l-82.7392-28.637866a416.904533 416.904533 0 0 0 12.202667-100.437334c0-229.973333-186.709333-416.682667-416.682667-416.682666-212.616533 0-388.2496 159.573333-413.559466 365.4144H1.365333z" fill="#000000"></path>
    <path d="M501.367467 261.410133c-133.956267 0.119467-242.688 108.936533-242.688 242.926934 0 134.075733 108.868267 242.926933 242.944 242.926933 6.792533 0 13.533867-0.273067 20.189866-0.836267l24.2688 84.923734a332.202667 332.202667 0 0 1-44.458666 2.9696c-182.135467 0-330.001067-147.8656-330.001067-329.984 0-182.135467 147.8656-329.984 330.001067-329.984 4.5056 0 9.0112 0.085333 13.482666 0.273066l-13.738666 86.784z m99.328-71.901866c133.7856 42.103467 230.912 167.2192 230.912 314.8288 0 136.6528-83.234133 254.0032-201.728 304.093866l-24.183467-84.565333c82.056533-38.997333 138.8544-122.692267 138.8544-219.528533 0-104.0896-65.604267-192.9728-157.678933-227.5328l13.824-87.296z" fill="#000000"></path>
</svg>