<svg version="1.1" xmlns="http://www.w3.org/2000/svg" xmlns:xlink="http://www.w3.org/1999/xlink" viewBox="0 0 16 16" >
<path d="M0.3,10.3C1.4,13.7,4.5,16,8,16c4.4,0,8-3.6,8-8s-3.6-8-8-8C3.8,0,0.3,3.3,0,7.5l0,0l4.3,1.8C4.7,9,5.2,8.9,5.6,8.9l2-2.8
	l0,0c0-1.7,1.4-3,3-3c1.7,0,3,1.4,3,3c0,1.7-1.4,3-3,3c0,0,0,0-0.1,0l-2.8,2c0,1.2-0.9,2.2-2.2,2.3c-0.3,0-0.6,0-0.9-0.2
	c-0.7-0.3-1.2-0.9-1.3-1.6L0.3,10.3L0.3,10.3z M4.9,12.7c0.9,0.3,1.9-0.1,2.2-1C7.4,10.8,7,9.9,6.2,9.5c-0.4-0.2-0.9-0.2-1.3,0l1,0.4c0.6,0.3,0.9,1,0.7,1.6
	c-0.3,0.6-1,0.9-1.7,0.7l-1-0.4C4.2,12.2,4.5,12.5,4.9,12.7L4.9,12.7z M8.6,6c0,1.1,0.9,2,2,2c1.1,0,2-0.9,2-2c0-1.1-0.9-2-2-2
	C9.5,4,8.6,4.9,8.6,6z M10.6,4.5c0.8,0,1.5,0.7,1.5,1.5c0,0.8-0.7,1.5-1.5,1.5l0,0C9.8,7.5,9.1,6.8,9.1,6C9.1,5.2,9.8,4.5,10.6,4.5z
	"/>
</svg>
